<?xml version="1.0" encoding="utf-8"?>
<!-- Generator: Adobe Illustrator 24.3.0, SVG Export Plug-In . SVG Version: 6.00 Build 0)  -->
<svg version="1.1" id="Layer_1" xmlns="http://www.w3.org/2000/svg" xmlns:xlink="http://www.w3.org/1999/xlink" x="0px" y="0px"
	 viewBox="0 0 104.09 102.38" style="enable-background:new 0 0 104.09 102.38;" xml:space="preserve">
<style type="text/css">
	.st0{fill:#BABABA;}
	.st1{fill:#E99D2F;}
	.st2{fill:#5E2C00;}
	.st3{opacity:0.3;fill:#BD6736;}
	.st4{fill:#5F2D25;}
	.st5{fill:#8E4A40;}
	.st6{fill:#B55F54;}
	.st7{opacity:0.7;fill:#FFF799;}
</style>
<path class="st0" d="M78.49,72.05c0,3.68-12.35,6.66-27.58,6.66c-15.23,0-27.58-2.98-27.58-6.66c0-3.68,12.35-6.66,27.58-6.66
	C66.15,65.39,78.49,68.37,78.49,72.05z"/>
<g>
	<path class="st1" d="M78.31,37.05l-26.28,0.34l-26.28-0.34l6.73,34.21c0,2.34,8.76,4.24,19.56,4.24c10.8,0,19.55-1.9,19.55-4.24
		c0-0.02-0.01-0.05-0.01-0.07L78.31,37.05z"/>
	<path class="st2" d="M52.04,76.03c-9.92,0-19.95-1.62-20.07-4.71l-6.72-34.17c-0.03-0.15,0.01-0.31,0.11-0.43
		c0.1-0.12,0.26-0.17,0.41-0.19l26.28,0.34l26.26-0.34c0.16,0.01,0.31,0.07,0.41,0.19c0.1,0.12,0.14,0.28,0.11,0.43l-6.7,34.06
		c0,0.02,0,0.03,0,0.05C72.12,74.39,62.02,76.03,52.04,76.03z M26.39,37.58L33,71.16c0.01,0.03,0.01,0.07,0.01,0.1
		c0,1.55,7.24,3.72,19.04,3.72c11.79,0,19.03-2.17,19.03-3.72c0,0.01,0,0-0.01-0.03c0-0.05,0-0.09,0.01-0.14l6.59-33.51l-25.63,0.33
		L26.39,37.58z"/>
</g>
<path class="st3" d="M78.31,37.05l-19.4,0.25c0.71,0.4,1.27,0.99,1.56,1.9c1.23,3.92,0.59,8.59,0.21,12.6
	c-0.43,4.45-0.68,8.96-1.21,13.4c-0.44,3.7-1.87,7.61-4.42,10.25c9.38-0.31,16.56-2.07,16.56-4.19c0-0.02-0.01-0.05-0.01-0.07
	L78.31,37.05z"/>
<g>
	<path class="st1" d="M82.53,28.98H21.51l2.98,8.37c0.58,3.19,12.69,5.73,27.55,5.73c15.23,0,27.02-2.79,27.57-5.97
		C79.63,37.05,82.53,28.98,82.53,28.98z"/>
	<path class="st2" d="M52.04,43.59c-13.01,0-27.23-2.14-28.05-6.11l-2.97-8.33c-0.06-0.16-0.03-0.34,0.07-0.47
		c0.1-0.14,0.26-0.22,0.42-0.22h61.02c0.17,0,0.33,0.08,0.42,0.22c0.1,0.14,0.12,0.32,0.06,0.47c-0.76,2.13-2.74,7.63-2.9,8.08
		C79.41,40.86,67.36,43.59,52.04,43.59z M22.25,29.5l2.73,7.67c0.01,0.03,0.02,0.05,0.02,0.08c0.46,2.56,11.44,5.3,27.04,5.3
		c7.21,0,14.02-0.63,19.18-1.78c5.55-1.23,7.71-2.75,7.88-3.76c0.01-0.06,0.02-0.1,2.68-7.52H22.25z"/>
</g>
<path class="st3" d="M22.29,28.98c1.67,1.63,3.96,2.75,6.05,3.6c3.91,1.58,7.98,2.52,12.17,2.99c4.69,0.53,9.36,0.68,14.07,0.9
	c2.19,0.1,5.09,0.22,5.89,2.74c0.35,1.12,0.55,2.31,0.65,3.52c10.62-0.84,18.08-3.11,18.51-5.62c0.01-0.06,2.91-8.13,2.91-8.13
	H22.29z"/>
<g>
	<path class="st1" d="M82.57,28.67c0,2.48-13.67,4.48-30.53,4.48c-16.86,0-30.53-2.01-30.53-4.48c0-2.48,13.67-4.48,30.53-4.48
		C68.91,24.19,82.57,26.2,82.57,28.67z"/>
	<path class="st4" d="M52.04,33.67c-8.18,0-15.87-0.47-21.66-1.32C21,30.98,21,29.24,21,28.67c0-0.57,0-2.31,9.39-3.68
		c5.79-0.85,13.48-1.32,21.66-1.32c8.18,0,15.87,0.47,21.66,1.32c9.39,1.38,9.39,3.11,9.39,3.68c0,0.57,0,2.31-9.39,3.68
		C67.92,33.21,60.22,33.67,52.04,33.67z M52.04,24.71c-19.98,0-30.01,2.54-30.01,3.96c0,1.42,10.03,3.96,30.01,3.96
		c19.98,0,30.01-2.54,30.01-3.96C82.05,27.25,72.03,24.71,52.04,24.71z"/>
</g>
<path class="st5" d="M67.15,27.65c-0.51-0.02-1.02-0.05-1.54-0.09c-0.62,0.14-1.25,0.28-1.87,0.35c-0.05,0.02-0.11,0.02-0.18,0.02
	c-0.03,0-0.06,0-0.09,0.01c-0.09,0.12-0.23,0.21-0.39,0.2c-0.22-0.02-0.56-0.08-0.76-0.24c-0.11-0.02-0.21-0.03-0.32-0.06
	c-0.2-0.04-0.45-0.09-0.71-0.15c-0.44-0.02-0.88-0.19-1.3-0.33c-0.83-0.2-1.66-0.4-2.48-0.61c-0.98-0.05-1.96-0.05-2.92,0.04
	c-5.22,0.46-10.35,1.33-15.6,1.44c-3.56,0.08-7.81,0.23-9.94,3.4c5.6,0.94,13.82,1.54,23,1.54c10.11,0,19.07-0.72,24.62-1.83
	C75,28.14,70.37,27.75,67.15,27.65z"/>
<path class="st6" d="M66.55,29.08c-0.17-0.25-0.01-0.69,0.3-0.74c2.03-0.33,5-0.13,7.56,0.76c-2.13-1.17-5.03-1.38-7.26-1.45
	c-0.51-0.02-1.02-0.05-1.54-0.09c-0.62,0.14-1.25,0.28-1.87,0.35c-0.05,0.02-0.11,0.02-0.18,0.02c-0.03,0-0.06,0-0.09,0.01
	c-0.09,0.12-0.23,0.21-0.39,0.2c-0.22-0.02-0.56-0.08-0.76-0.24c-0.11-0.02-0.21-0.03-0.32-0.06c-0.2-0.04-0.45-0.09-0.71-0.15
	c-0.44-0.02-0.88-0.19-1.3-0.33c-0.83-0.2-1.66-0.4-2.48-0.61c-0.98-0.05-1.96-0.05-2.92,0.04c-5.22,0.46-10.35,1.33-15.6,1.44
	c-3.31,0.07-7.21,0.21-9.45,2.77c1.08-0.41,2.14-0.86,3.28-1.09c1.86-0.38,3.68-0.73,5.59-0.71c0.49,0,0.7,0.69,0.25,0.94
	c-0.93,0.53-1.73,1.16-2.46,1.86c5.53-2.2,11.46-3.16,17.46-2.97c4.6,0.14,9.28,0.85,13.4,2.83C67.15,30.88,67.19,30.05,66.55,29.08
	z"/>
<path class="st4" d="M71.73,27.97c-1.74-0.36-3.46-0.88-5.26-0.74c-0.98,0.08-2.37,0.6-3.56,0.78c-3.53-1.46-7.24-1.67-11.21-1.49
	c-2.34,0.1-4.68,0.35-6.96,0.89c-0.56,0.13-1.08,0.32-1.57,0.53c-3.57-0.2-7.63-0.1-10.99,0.96c-0.55,0.17-4.87,1.99-2.67,2.92
	c0.21,0.09,0.54-0.22,0.42-0.43c-1.03-1.71,7.1-2.57,7.88-2.65c1.55-0.15,3.09-0.33,4.64-0.46c-1.06,0.54-2.05,1.19-3.19,1.73
	c-0.06,0.03-0.17,0.21-0.03,0.18c1.51-0.34,2.92-1.16,4.43-1.58c1.89-0.52,3.86-0.66,5.8-0.82c5.55-0.46,10.3,0.38,15.6,1.95
	c0.21,0.06,0.62-0.3,0.37-0.45c-0.49-0.3-0.99-0.57-1.49-0.81c1.12-0.09,2.3-0.3,3.02-0.26c1.42,0.08,2.82,0.53,4.2,0.83
	c1.37,0.3,4.24,0.68,4.75,2.35c0.1,0.33,0.54-0.09,0.6-0.24C77.43,28.94,73.06,28.24,71.73,27.97z"/>
<g>
	<path class="st4" d="M49.08,28.82c-0.46-1.92-2.81-2.03-4.31-1.23c-0.78,0.24-1.48,0.64-2.13,1.25c0.22-0.77,0.14-1.6-0.34-2.33
		c-0.87-1.36-2.01-1.6-3.39-1.01c-0.52,0.08-1.04,0.24-1.52,0.5c-1.65,0.89-5.44,3.71-3.25,5.74c1.91,1.77,5.72,0.31,7.44-1.28
		c-0.09,1.24,1.83,1.97,3.09,1.78C46.07,32.04,49.57,30.87,49.08,28.82z"/>
	<path class="st5" d="M41.14,29.77c-1.04,1.5-3.51,1.82-5.18,1.66c-3.43-0.33-0.62-3.48,0.72-4.47c0.49-0.36,1.11-0.63,1.75-0.79
		c0.02,0,0.03,0.01,0.06,0.01c0.56-0.01,1.11-0.11,1.66,0.06C41.61,26.7,41.92,28.65,41.14,29.77z"/>
	<path class="st5" d="M46.98,30.62c-0.61,0.36-1.34,0.58-2.03,0.71c-1.25,0.23-3.53-0.76-1.91-2.25c0.35-0.32,0.69-0.58,1.04-0.78
		c0.01,0.11,0.1,0.19,0.29,0.12c1.05-0.41,2.28-0.45,3.23,0.25C48.31,29.2,47.61,30.25,46.98,30.62z"/>
</g>
<g>
	<path class="st4" d="M70.54,26.78c-0.32-1.36-1.98-1.43-3.04-0.87c-0.55,0.17-1.05,0.45-1.5,0.88c0.16-0.54,0.1-1.13-0.24-1.65
		c-0.62-0.96-1.42-1.13-2.39-0.71c-0.37,0.06-0.74,0.17-1.08,0.36c-1.16,0.63-3.84,2.62-2.29,4.05c1.34,1.25,4.04,0.22,5.25-0.91
		c-0.07,0.88,1.29,1.39,2.18,1.26C68.41,29.05,70.89,28.22,70.54,26.78z"/>
	<path class="st5" d="M64.94,27.45c-0.74,1.06-2.48,1.29-3.65,1.17c-2.42-0.23-0.44-2.46,0.51-3.16c0.35-0.26,0.78-0.45,1.23-0.56
		c0.01,0,0.02,0.01,0.04,0.01c0.39-0.01,0.78-0.08,1.17,0.04C65.27,25.28,65.49,26.66,64.94,27.45z"/>
	<path class="st5" d="M69.06,28.05c-0.43,0.25-0.94,0.41-1.43,0.5c-0.88,0.16-2.49-0.53-1.35-1.59c0.25-0.23,0.49-0.41,0.73-0.55
		c0.01,0.08,0.07,0.13,0.2,0.08c0.74-0.29,1.61-0.32,2.28,0.18C70,27.05,69.5,27.78,69.06,28.05z"/>
</g>
<path class="st7" d="M31.82,44.33c0,0-1.99-1.73-1.99,1.39c0,3.12,1.47,8.23,3.29,16.97c1.82,8.75,3.38,8.83,5.72,6.5
	C41.17,66.85,36.5,48.48,31.82,44.33z"/>
</svg>
