<?xml version="1.0" encoding="utf-8"?>
<!-- Generator: Adobe Illustrator 24.3.0, SVG Export Plug-In . SVG Version: 6.00 Build 0)  -->
<svg version="1.1" id="Layer_1" xmlns="http://www.w3.org/2000/svg" xmlns:xlink="http://www.w3.org/1999/xlink" x="0px" y="0px"
	 viewBox="0 0 104.09 102.38" style="enable-background:new 0 0 104.09 102.38;" xml:space="preserve">
<style type="text/css">
	.st0{fill:#BABABA;}
	.st1{fill:#E99D2F;}
	.st2{fill:#5E2C00;}
	.st3{opacity:0.3;fill:#BD6736;}
	.st4{fill:#5F2D25;}
	.st5{fill:#8E4A40;}
	.st6{fill:#B55F54;}
	.st7{opacity:0.7;fill:#FFF799;}
</style>
<path class="st0" d="M74.47,74.61c0,6.03-12.35,10.92-27.58,10.92c-15.23,0-27.58-4.89-27.58-10.92s12.35-10.92,27.58-10.92
	C62.12,63.69,74.47,68.58,74.47,74.61z"/>
<g>
	<path class="st1" d="M64.84,76.11L64.5,49.84l0.34-26.28l-34.21,6.73c-2.34,0-4.24,8.76-4.24,19.56c0,10.8,1.9,19.55,4.24,19.55
		c0.02,0,0.05-0.01,0.07-0.01L64.84,76.11z"/>
	<path class="st2" d="M25.87,49.85c0-9.92,1.62-19.95,4.71-20.07l34.17-6.72c0.15-0.03,0.31,0.01,0.43,0.11
		c0.12,0.1,0.17,0.26,0.19,0.41l-0.34,26.28l0.34,26.26c-0.01,0.16-0.07,0.31-0.19,0.41c-0.12,0.1-0.28,0.14-0.43,0.11l-34.06-6.7
		c-0.02,0-0.03,0-0.05,0C27.5,69.92,25.87,59.82,25.87,49.85z M64.31,24.2L30.73,30.8c-0.03,0.01-0.07,0.01-0.1,0.01
		c-1.55,0-3.72,7.24-3.72,19.04c0,11.79,2.17,19.03,3.72,19.03c-0.01,0,0,0,0.03-0.01c0.05,0,0.09,0,0.14,0.01l33.51,6.59
		l-0.33-25.63L64.31,24.2z"/>
</g>
<path class="st3" d="M64.84,76.11l-0.25-19.4c-0.4,0.71-0.99,1.27-1.9,1.56c-3.92,1.23-8.59,0.59-12.6,0.21
	c-4.45-0.43-8.96-0.68-13.4-1.21c-3.7-0.44-7.61-1.87-10.25-4.42c0.31,9.38,2.07,16.56,4.19,16.56c0.02,0,0.05-0.01,0.07-0.01
	L64.84,76.11z"/>
<path class="st3" d="M72.92,20.1c-1.63,1.67-2.75,3.96-3.6,6.05c-1.58,3.91-2.52,7.98-2.99,12.17c-0.53,4.69-0.68,9.36-0.9,14.07
	c-0.1,2.19-0.22,5.09-2.74,5.89c-1.12,0.35-2.31,0.55-3.52,0.65c0.84,10.62,3.11,18.08,5.62,18.51c0.06,0.01,8.13,2.91,8.13,2.91
	V20.1z"/>
<g>
	<path class="st1" d="M73.22,80.38c-2.48,0-4.48-13.67-4.48-30.53c0-16.86,2.01-30.53,4.48-30.53c2.48,0,4.48,13.67,4.48,30.53
		C77.7,66.71,75.7,80.38,73.22,80.38z"/>
	<path class="st4" d="M68.22,49.85c0-8.18,0.47-15.87,1.32-21.66c1.38-9.39,3.11-9.39,3.68-9.39c0.57,0,2.31,0,3.68,9.39
		c0.85,5.79,1.32,13.48,1.32,21.66c0,8.18-0.47,15.87-1.32,21.66c-1.38,9.39-3.11,9.39-3.68,9.39c-0.57,0-2.31,0-3.68-9.39
		C68.69,65.72,68.22,58.03,68.22,49.85z M77.18,49.85c0-19.98-2.54-30.01-3.96-30.01c-1.42,0-3.96,10.03-3.96,30.01
		c0,19.98,2.54,30.01,3.96,30.01C74.64,79.86,77.18,69.83,77.18,49.85z"/>
</g>
<g>
	<path class="st5" d="M76.01,68.32c-0.08-0.5-0.15-1.01-0.2-1.53c-0.26-0.59-0.51-1.17-0.69-1.77c-0.03-0.05-0.04-0.11-0.05-0.17
		c-0.01-0.03-0.02-0.06-0.02-0.09c-0.14-0.07-0.25-0.18-0.27-0.34c-0.02-0.21-0.02-0.56,0.09-0.79c0-0.11-0.01-0.22,0-0.33
		c0.01-0.21,0.01-0.46,0.02-0.72c-0.07-0.44,0.02-0.9,0.08-1.34c0.04-0.85,0.09-1.7,0.14-2.55c-0.14-0.97-0.32-1.93-0.58-2.87
		c-1.43-5.04-3.24-9.92-4.33-15.06c-0.74-3.48-1.68-7.63-5.19-9.13c0.12,5.67,1.07,13.87,2.78,22.88c1.89,9.93,4.27,18.6,6.4,23.85
		C77,76.12,76.52,71.5,76.01,68.32z"/>
	<path class="st6" d="M74.5,68c0.22-0.21,0.67-0.14,0.78,0.16c0.7,1.94,1.06,4.89,0.66,7.56c0.76-2.31,0.42-5.2,0.07-7.4
		c-0.08-0.5-0.15-1.01-0.2-1.53c-0.26-0.59-0.51-1.17-0.69-1.77c-0.03-0.05-0.04-0.11-0.05-0.17c-0.01-0.03-0.02-0.06-0.02-0.09
		c-0.14-0.07-0.25-0.18-0.27-0.34c-0.02-0.21-0.02-0.56,0.09-0.79c0-0.11-0.01-0.22,0-0.33c0.01-0.21,0.01-0.46,0.02-0.72
		c-0.07-0.44,0.02-0.9,0.08-1.34c0.04-0.85,0.09-1.7,0.14-2.55c-0.14-0.97-0.32-1.93-0.58-2.87c-1.43-5.04-3.24-9.92-4.33-15.06
		c-0.69-3.23-1.55-7.04-4.49-8.77c0.61,0.98,1.25,1.94,1.69,3.02c0.72,1.76,1.4,3.48,1.74,5.36c0.09,0.49-0.55,0.81-0.87,0.42
		c-0.69-0.81-1.46-1.48-2.29-2.07c3.19,5.02,5.24,10.67,6.18,16.6c0.72,4.55,0.9,9.28-0.28,13.7C72.84,68.93,73.66,68.81,74.5,68z"
		/>
	<path class="st4" d="M76.55,72.88c0.03-1.78,0.22-3.56-0.26-5.31c-0.26-0.95-1.03-2.22-1.43-3.35c0.78-3.75,0.29-7.42-0.63-11.29
		c-0.54-2.28-1.21-4.53-2.17-6.67c-0.24-0.53-0.52-1-0.82-1.44c-0.47-3.54-1.32-7.51-2.99-10.62c-0.27-0.51-2.86-4.42-3.37-2.07
		c-0.05,0.23,0.32,0.49,0.5,0.33c1.49-1.33,3.85,6.5,4.07,7.25c0.44,1.5,0.9,2.97,1.32,4.47c-0.73-0.94-1.55-1.79-2.29-2.81
		c-0.04-0.05-0.24-0.12-0.18,0c0.62,1.42,1.69,2.65,2.38,4.06c0.86,1.76,1.36,3.67,1.88,5.54c1.49,5.37,1.55,10.19,1,15.69
		c-0.02,0.22,0.41,0.56,0.51,0.27c0.2-0.54,0.38-1.08,0.52-1.61c0.3,1.09,0.73,2.21,0.82,2.92c0.19,1.41,0,2.87-0.03,4.29
		c-0.04,1.4,0.12,4.29-1.42,5.11c-0.31,0.16,0.19,0.52,0.35,0.55C76.67,78.66,76.53,74.23,76.55,72.88z"/>
</g>
<g>
	<path class="st4" d="M93.17,77.87c-0.28-1.96-2.66-2.29-4.27-1.64c-0.81,0.16-1.57,0.49-2.28,1.04c0.3-0.75,0.29-1.58-0.12-2.35
		c-0.76-1.44-1.89-1.78-3.35-1.34c-0.54,0.03-1.08,0.14-1.6,0.35c-1.76,0.73-5.88,3.16-3.85,5.4c1.77,1.95,5.78,0.86,7.69-0.55
		c-0.21,1.23,1.67,2.14,2.97,2.07C89.8,80.78,93.48,79.95,93.17,77.87z"/>
	<path class="st5" d="M85.01,78.04c-1.2,1.39-3.74,1.47-5.42,1.15c-3.46-0.66-0.3-3.52,1.16-4.38c0.54-0.31,1.18-0.52,1.85-0.62
		c0.02,0.01,0.03,0.01,0.06,0.02c0.57,0.04,1.14,0,1.68,0.22C85.78,75.03,85.91,77,85.01,78.04z"/>
	<path class="st5" d="M90.87,79.45c-0.66,0.3-1.41,0.44-2.13,0.51c-1.29,0.11-3.51-1.1-1.73-2.43c0.38-0.29,0.76-0.51,1.13-0.68
		c0,0.12,0.08,0.2,0.28,0.14c1.11-0.31,2.36-0.23,3.25,0.57C92.35,78.17,91.54,79.14,90.87,79.45z"/>
</g>
<g>
	<path class="st4" d="M82.33,81.28c0.34-1.35-1.09-2.19-2.29-2.18c-0.56-0.11-1.14-0.09-1.74,0.08c0.39-0.41,0.61-0.95,0.56-1.57
		c-0.1-1.14-0.73-1.66-1.78-1.74c-0.35-0.12-0.73-0.19-1.12-0.19c-1.32,0.02-4.62,0.53-3.92,2.52c0.61,1.73,3.47,2.07,5.07,1.64
		c-0.47,0.74,0.5,1.83,1.34,2.13C79.39,82.3,81.97,82.72,82.33,81.28z"/>
	<path class="st5" d="M77.06,79.27c-1.15,0.6-2.79-0.01-3.78-0.66c-2.04-1.33,0.75-2.38,1.92-2.56c0.43-0.06,0.9-0.03,1.35,0.08
		c0.01,0.01,0.02,0.02,0.03,0.03c0.35,0.17,0.73,0.3,1.01,0.58C78.36,77.5,77.92,78.82,77.06,79.27z"/>
	<path class="st5" d="M80.43,81.72c-0.5,0.02-1.03-0.08-1.5-0.23c-0.86-0.27-1.95-1.63-0.45-2.03c0.32-0.09,0.62-0.13,0.9-0.15
		c-0.03,0.08,0,0.15,0.14,0.17c0.79,0.09,1.57,0.47,1.93,1.22C81.72,81.27,80.94,81.69,80.43,81.72z"/>
</g>
<path class="st7" d="M57.57,29.63c0,0,1.73-1.99-1.39-1.99c-3.12,0-8.23,1.47-16.97,3.29c-8.75,1.82-8.83,3.38-6.5,5.72
	C35.05,38.98,53.41,34.3,57.57,29.63z"/>
<g>
	<path class="st1" d="M72.92,80.33V19.32l-8.37,2.98c-3.19,0.58-5.73,12.69-5.73,27.55c0,15.23,2.79,27.02,5.97,27.57
		C64.85,77.43,72.92,80.33,72.92,80.33z"/>
	<path class="st2" d="M58.3,49.85c0-13.01,2.14-27.23,6.11-28.05l8.33-2.97c0.16-0.06,0.34-0.03,0.47,0.07
		c0.14,0.1,0.22,0.26,0.22,0.42v61.02c0,0.17-0.08,0.33-0.22,0.42c-0.14,0.1-0.32,0.12-0.47,0.06c-2.13-0.76-7.63-2.74-8.08-2.9
		C61.03,77.21,58.3,65.17,58.3,49.85z M72.4,20.06l-7.67,2.73c-0.03,0.01-0.05,0.02-0.08,0.02c-2.56,0.46-5.3,11.44-5.3,27.04
		c0,7.21,0.63,14.02,1.78,19.18c1.23,5.55,2.75,7.71,3.76,7.88c0.06,0.01,0.1,0.02,7.52,2.68V20.06z"/>
</g>
</svg>
